<?xml version="1.0" encoding="UTF-8" standalone="no"?>
<svg
   version="1.1"
   width="92.769mm"
   height="90.2998mm"
   viewBox="-10 -10 283 276"
   id="svg1"
   sodipodi:docname="FS24SH-arrow.svg"
   inkscape:version="1.4.2 (f4327f4, 2025-05-13)"
   xmlns:inkscape="http://www.inkscape.org/namespaces/inkscape"
   xmlns:sodipodi="http://sodipodi.sourceforge.net/DTD/sodipodi-0.dtd"
   xmlns="http://www.w3.org/2000/svg"
   xmlns:svg="http://www.w3.org/2000/svg">
  <defs
     id="defs1" />
  <sodipodi:namedview
     id="namedview1"
     pagecolor="#ffffff"
     bordercolor="#000000"
     borderopacity="0.25"
     inkscape:showpageshadow="2"
     inkscape:pageopacity="0.0"
     inkscape:pagecheckerboard="0"
     inkscape:deskcolor="#d1d1d1"
     inkscape:document-units="mm"
     inkscape:zoom="3.4193737"
     inkscape:cx="194.48006"
     inkscape:cy="175.90941"
     inkscape:window-width="2560"
     inkscape:window-height="1369"
     inkscape:window-x="-8"
     inkscape:window-y="-8"
     inkscape:window-maximized="1"
     inkscape:current-layer="svg1" />
  <path
     id="Unnamed"
     fill="none"
     stroke="#000000"
     stroke-width="1"
	 vector-effect="non-scaling-stroke"
     d="m 80.5,183.25 c -0.135565,-38.08938 0.06051,-76.18126 0.0608,-114.269338 0.452653,-6.61001 1.265882,-16.535303 9.322608,-18.017962 11.353895,-2.581533 21.374565,4.873627 30.120285,11.005308 25.99859,17.64792 52.14745,35.095871 77.99924,52.945582 5.5014,4.0371 10.13666,12.10008 5.46952,18.4247 -6.5506,8.55723 -16.9066,12.89203 -25.31354,19.30447 -23.74408,15.89455 -47.14535,32.3241 -71.1225,47.85372 -6.08308,3.08123 -14.421746,6.02339 -20.629658,1.85624 C 81.403199,197.46618 80.646047,189.86773 80.5,183.25 Z" />
  <path
     id="Selection"
     fill="none"
     stroke="#000000"
     stroke-width="1"
	 vector-effect="non-scaling-stroke"
     d="M 120,1.42 C 171.71955,-3.5007588 225.55562,26.009351 246.92771,73.824912 269.41364,120.77847 259.79727,180.99492 222.91,217.96 187.61375,253.87844 130.58444,266.25607 83.859512,247.07084 46.54218,233.22495 17.329882,200.55845 7.4767653,162.02311 -6.0553017,114.78682 10.912107,60.683204 49.322582,29.970438 69.312358,13.476794 94.261573,3.8345406 120,1.42 Z" />
</svg>
